<svg width="223" height="48" viewBox="0 0 223 48" fill="none" xmlns="http://www.w3.org/2000/svg"><path d="M72.795 39.698v3.946a.47.47 0 00.466.466.47.47 0 00.466-.466v-8.508a.47.47 0 00-.466-.466.47.47 0 00-.466.466v3.713h-4.767v-3.713a.47.47 0 00-.466-.466.47.47 0 00-.466.466v8.508a.47.47 0 00.466.466.47.47 0 00.466-.466v-3.946h4.767zm8.982 4.494c2.658 0 4.275-1.576 4.275-4.795 0-3.247-1.617-4.809-4.275-4.809-2.658 0-4.274 1.562-4.274 4.809 0 3.22 1.616 4.795 4.274 4.795zm0-8.755c2.096 0 3.316 1.275 3.316 3.96 0 2.671-1.22 3.945-3.316 3.945s-3.315-1.274-3.315-3.945c0-2.685 1.219-3.96 3.315-3.96zm12.097 7.07a.456.456 0 00.41-.26l2.878-5.33v6.74c0 .247.205.453.452.453a.456.456 0 00.452-.453v-8.535a.456.456 0 00-.452-.452c-.247 0-.356.165-.411.26l-3.33 6.207-3.315-6.206a.451.451 0 00-.41-.26.456.456 0 00-.453.451v8.535c0 .247.206.453.452.453a.456.456 0 00.453-.453v-6.74l2.863 5.33a.46.46 0 00.41.26zM107.352 44a.427.427 0 00.425-.425.427.427 0 00-.425-.424h-4.083v-3.37h3.014a.427.427 0 00.425-.425.427.427 0 00-.425-.425h-3.014v-3.302h3.932a.427.427 0 00.425-.424.427.427 0 00-.425-.425h-4.397a.462.462 0 00-.466.466v8.288c0 .26.205.466.466.466h4.548zm10.439-8.864a.471.471 0 00-.466-.466c-.26 0-.466.22-.466.466v8.508c0 .246.206.466.466.466s.466-.22.466-.466v-8.508zm10.256-.466a.456.456 0 00-.452.452v7.029l-4.85-7.289a.471.471 0 00-.37-.192.456.456 0 00-.452.452v8.535c0 .247.205.453.452.453a.456.456 0 00.452-.453v-7.014l4.822 7.275c.096.123.22.192.384.192.26 0 .466-.206.466-.466v-8.522a.456.456 0 00-.452-.452zm6.715.987v7.987c0 .26.206.466.466.466s.466-.206.466-.466v-7.987h2.438a.433.433 0 00.439-.439.433.433 0 00-.439-.438h-5.822a.433.433 0 00-.439.438c0 .247.192.439.439.439h2.452zM147.108 44a.427.427 0 00.425-.425.427.427 0 00-.425-.424h-4.083v-3.37h3.014a.427.427 0 00.425-.425.427.427 0 00-.425-.425h-3.014v-3.302h3.932a.427.427 0 00.425-.424.427.427 0 00-.425-.425h-4.398a.461.461 0 00-.465.466v8.288c0 .26.205.466.465.466h4.549zm5.091-.877v-7.987a.462.462 0 00-.466-.466.461.461 0 00-.465.466v8.398c0 .26.205.466.465.466h4.22a.432.432 0 00.438-.438.432.432 0 00-.438-.439h-3.754zm8.706 0v-7.987a.462.462 0 00-.466-.466.462.462 0 00-.466.466v8.398c0 .26.206.466.466.466h4.22a.433.433 0 00.438-.438.433.433 0 00-.438-.439h-3.754zm8.706-7.987a.471.471 0 00-.466-.466c-.26 0-.466.22-.466.466v8.508c0 .246.206.466.466.466s.466-.22.466-.466v-8.508zm8.05 8.206c-2.11 0-3.315-1.096-3.315-3.945 0-2.685 1.205-3.96 3.315-3.96 1.041 0 1.918.507 2.384 1.151a.431.431 0 00.356.178.432.432 0 00.438-.438.48.48 0 00-.096-.288c-.643-.89-1.781-1.452-3.082-1.452-2.658 0-4.274 1.562-4.274 4.809 0 3.37 1.616 4.795 4.274 4.795 1.658 0 2.617-.74 3.274-1.507a.675.675 0 00.178-.452v-2.398a.436.436 0 00-.424-.425h-2.768a.426.426 0 00-.424.425c0 .233.191.425.424.425h2.288v1.986c-.452.562-1.274 1.096-2.548 1.096zm12.4.658a.427.427 0 00.425-.425.427.427 0 00-.425-.424h-4.082v-3.37h3.014a.427.427 0 00.425-.425.427.427 0 00-.425-.425h-3.014v-3.302h3.932a.426.426 0 00.424-.424.426.426 0 00-.424-.425h-4.398a.462.462 0 00-.466.466v8.288c0 .26.206.466.466.466h4.548zm10.147-9.33a.456.456 0 00-.452.452v7.029l-4.85-7.289a.468.468 0 00-.37-.192.456.456 0 00-.452.452v8.535c0 .247.206.453.452.453a.456.456 0 00.452-.453v-7.014l4.823 7.275a.461.461 0 00.383.192.462.462 0 00.466-.466v-8.522a.456.456 0 00-.452-.452zm8.373 9.522c1.261 0 2.494-.576 3.096-1.452a.42.42 0 00.083-.26.433.433 0 00-.439-.44.432.432 0 00-.356.179c-.534.767-1.48 1.123-2.384 1.123-2.11 0-3.315-1.096-3.315-3.945 0-2.685 1.205-3.96 3.315-3.96 1.028 0 1.918.507 2.384 1.151.11.137.233.178.356.178a.433.433 0 00.439-.438.486.486 0 00-.096-.288c-.644-.89-1.781-1.452-3.083-1.452-2.658 0-4.274 1.562-4.274 4.809 0 3.37 1.616 4.795 4.274 4.795zM220.54 44a.427.427 0 00.425-.425.427.427 0 00-.425-.424h-4.082v-3.37h3.014a.426.426 0 00.424-.425.426.426 0 00-.424-.425h-3.014v-3.302h3.932a.427.427 0 00.424-.424.427.427 0 00-.424-.425h-4.398a.462.462 0 00-.466.466v8.288c0 .26.206.466.466.466h4.548z" fill="#999"/><path d="M68.022 30.055a2.002 2.002 0 01-2.052-2.052V3.56a1.98 1.98 0 012.052-2.052c1.171 0 1.968.838 1.968 2.052v12.264L84.054 2.097a1.75 1.75 0 011.339-.586c1.005 0 1.968.794 1.968 1.84a1.899 1.899 0 01-.623 1.467l-8.044 7.867 9.084 14.4c.212.338.328.727.336 1.126a1.916 1.916 0 01-1.843 1.844c-.878 0-1.38-.293-1.757-.934l-8.663-13.758-5.86 5.73V28a1.963 1.963 0 01-1.969 2.055zm29.554-11.453V3.56a1.977 1.977 0 012.049-2.052c1.174 0 1.968.838 1.968 2.052v15.443c0 4.481 2.637 7.577 7.745 7.577 5.107 0 7.751-3.096 7.751-7.577V3.56c0-1.214.797-2.052 1.968-2.052a1.976 1.976 0 012.052 2.052v15.042c0 7.162-4.394 11.637-11.762 11.637s-11.771-4.497-11.771-11.637zm37.13 11.453a2 2 0 01-2.052-2.052V3.56a1.99 1.99 0 01.578-1.473 1.982 1.982 0 011.474-.579c1.171 0 1.965.838 1.965 2.052v12.264l14.066-13.727a1.755 1.755 0 011.339-.586c1.006 0 1.968.794 1.968 1.84a1.9 1.9 0 01-.623 1.467l-8.043 7.867 9.08 14.4c.212.338.329.727.337 1.126a1.916 1.916 0 01-1.844 1.844c-.878 0-1.382-.293-1.756-.934l-8.663-13.758-5.861 5.73V28a1.96 1.96 0 01-1.965 2.055zm29.551-11.454V3.561a1.99 1.99 0 01.577-1.474 1.969 1.969 0 011.472-.579c1.174 0 1.968.838 1.968 2.052v15.443c0 4.481 2.638 7.577 7.745 7.577s7.742-3.096 7.742-7.577V3.56c0-1.214.797-2.052 1.968-2.052a1.98 1.98 0 012.049 2.052v15.041c0 7.163-4.394 11.638-11.762 11.638s-11.759-4.497-11.759-11.638zm56.423 11.454a1.757 1.757 0 01-1.507-.713L203.142 8.916v19.255a1.907 1.907 0 01-3.809 0V3.432c0-1.214.754-1.924 1.968-1.924a1.867 1.867 0 011.507.794l15.988 20.347V3.432a1.828 1.828 0 01.531-1.394 1.807 1.807 0 011.394-.53c1.13 0 1.884.754 1.884 1.924v24.739a1.816 1.816 0 01-.542 1.371 1.818 1.818 0 01-1.383.513z" fill="#263A4A"/><path d="M18.314 15.393a5.026 5.026 0 007.103 0L40.627.183c.058-.058.108-.12.164-.183H36.51L23.27 13.241a2.043 2.043 0 01-2.803 0L7.218 0H2.937c.056.062.109.125.168.184l15.209 15.209z" fill="#F05825"/><path d="M21.863 8.072a2.588 2.588 0 001.85-.766L31.02 0h-4.3l-4.858 4.855L17.01 0h-4.301l7.306 7.306a2.597 2.597 0 001.85.766zm-1.846 28.363l-7.309 7.297h4.3l4.855-4.858 4.858 4.858h4.298l-7.306-7.297a2.62 2.62 0 00-3.696 0z" fill="#F05825"/><path d="M25.419 28.338a5.023 5.023 0 00-7.104 0l-15.2 15.21c-.059.058-.112.12-.168.183H7.22l13.244-13.244a1.996 1.996 0 012.803 0l13.24 13.244h4.289c-.056-.062-.106-.125-.165-.184L25.419 28.338zm-10.026-2.921a5.03 5.03 0 000-7.103L.183 3.114C.126 3.045.06 3.008 0 2.955v4.263l13.241 13.244a1.996 1.996 0 010 2.803L0 36.51v4.267c.06-.053.125-.094.184-.15l15.209-15.21z" fill="#F05825"/><path d="M8.072 21.864a2.584 2.584 0 00-.766-1.846L0 12.709v4.3l4.855 4.855L0 26.722v4.298l7.306-7.306a2.587 2.587 0 00.766-1.85zm28.364 1.85l7.309 7.306v-4.298l-4.858-4.858 4.858-4.855v-4.3l-7.309 7.309a2.619 2.619 0 000 3.696z" fill="#F05825"/><path d="M28.34 18.313a5.03 5.03 0 000 7.103l15.209 15.21c.059.058.121.108.183.164v-4.282l-13.244-13.24a1.996 1.996 0 010-2.803L43.732 7.22V2.936l-.183.165-15.21 15.212z" fill="#F05825"/></svg>